<svg viewBox="0 0 96 96" xmlns="http://www.w3.org/2000/svg" xmlns:xlink="http://www.w3.org/1999/xlink" id="Icons_GoodIdea" overflow="hidden"><path d="M81.005 49.3 74.105 37.3 74.105 36.8C74.7106 20.2038 61.7477 6.25906 45.1515 5.65346 28.5554 5.04786 14.6106 18.0108 14.005 34.6069 13.9783 35.3377 13.9783 36.0692 14.005 36.8 13.9662 46.2616 18.3265 55.2039 25.805 61L25.805 86.3 57.405 86.3 57.405 74.3 62.305 74.3C68.822 74.3009 74.1058 69.0187 74.1067 62.5017 74.1067 62.4345 74.1061 62.3672 74.105 62.3L74.105 56.3 78.505 56.3C81.105 56 83.405 53 81.005 49.3ZM53.418 19.023 55.953 16.487C56.456 16.0044 57.25 16.0044 57.753 16.487 58.2488 16.9846 58.2488 17.7894 57.753 18.287L55.22 20.825C54.7446 21.3437 53.9387 21.3788 53.42 20.9034 52.9013 20.428 52.8662 19.6222 53.3416 19.1034 53.3666 19.0762 53.3927 19.05 53.42 19.025ZM41.593 11.337C41.593 10.6328 42.1638 10.062 42.868 10.062 43.5722 10.062 44.143 10.6328 44.143 11.337L44.143 14.923C44.143 15.6272 43.5722 16.198 42.868 16.198 42.1638 16.198 41.593 15.6272 41.593 14.923ZM27.993 16.292C28.491 15.7973 29.295 15.7973 29.793 16.292L32.329 18.828C32.7968 19.3543 32.7493 20.1602 32.2229 20.628 31.7399 21.0573 31.012 21.0573 30.529 20.628L27.994 18.1C27.4947 17.6019 27.4938 16.7933 27.9919 16.2941 27.9926 16.2934 27.9933 16.2927 27.994 16.292ZM23.367 31.825C22.6628 31.825 22.092 31.2542 22.092 30.55 22.092 29.8458 22.6628 29.275 23.367 29.275L26.953 29.275C27.6572 29.275 28.228 29.8458 28.228 30.55 28.228 31.2542 27.6572 31.825 26.953 31.825ZM32.333 42.236 29.8 44.772C29.2737 45.2398 28.4678 45.1923 28 44.6659 27.5707 44.1829 27.5707 43.455 28 42.972L30.536 40.436C31.039 39.9534 31.833 39.9534 32.336 40.436 32.8318 40.9336 32.8318 41.7384 32.336 42.236ZM42.767 54.542C41.0919 54.543 39.6981 53.255 39.567 51.585L45.967 51.585C45.8355 53.2547 44.4419 54.5425 42.767 54.542ZM47.176 49.535 38.358 49.535C37.5428 49.535 36.882 48.8742 36.882 48.059 36.882 47.2438 37.5428 46.583 38.358 46.583L47.176 46.583C47.9912 46.583 48.652 47.2438 48.652 48.059 48.652 48.8742 47.9912 49.535 47.176 49.535ZM49.451 43.987C49.2844 44.3211 48.9434 44.5325 48.57 44.533L36.964 44.533C36.5906 44.5325 36.2496 44.3211 36.083 43.987 35.2765 42.2531 34.2696 40.6196 33.083 39.12 32.1309 38.048 31.3778 36.8146 30.859 35.478 30.317 34.0617 30.0159 32.5647 29.968 31.049L29.968 30.606C30.0959 23.616 35.775 18.0035 42.766 17.958L42.766 17.958C49.7576 18.0029 55.4375 23.6155 55.566 30.606L55.566 31.049C55.5181 32.5647 55.217 34.0617 54.675 35.478 54.1562 36.8146 53.4031 38.048 52.451 39.12 51.2644 40.6196 50.2575 42.2531 49.451 43.987ZM57.756 44.578C57.2582 45.0733 56.4538 45.0733 55.956 44.578L53.421 42.042C52.9263 41.544 52.9263 40.74 53.421 40.242 53.9252 39.7625 54.7168 39.7625 55.221 40.242L57.757 42.778C58.2523 43.2758 58.2523 44.0802 57.757 44.578ZM62.177 31.79 58.591 31.79C57.8868 31.79 57.316 31.2192 57.316 30.515 57.316 29.8108 57.8868 29.24 58.591 29.24L62.177 29.24C62.8812 29.24 63.452 29.8108 63.452 30.515 63.452 31.2192 62.8812 31.79 62.177 31.79Z"></path><path d="M42.767 20.911 42.767 20.911C37.3915 20.9416 33.0226 25.2563 32.925 30.631L32.925 31C32.9678 32.179 33.2043 33.3428 33.625 34.445 34.0149 35.4383 34.578 36.3545 35.288 37.151 36.4159 38.5112 37.3821 39.9978 38.167 41.581L47.361 41.581C48.1459 39.9978 49.1121 38.5112 50.24 37.151 50.95 36.3545 51.5131 35.4383 51.903 34.445 52.3261 33.3432 52.5649 32.1793 52.61 31L52.61 30.631C52.5123 25.2559 48.1429 20.9411 42.767 20.911Z"></path></svg>