<svg viewBox="0 0 96 96" xmlns="http://www.w3.org/2000/svg" xmlns:xlink="http://www.w3.org/1999/xlink" id="Icons_RightAndLeftBrain" overflow="hidden">
<path d="M85.486 57.63C85.4883 54.3436 84.1558 51.1972 81.794 48.912 85.1016 43.4119 83.3242 36.2717 77.8241 32.9641 77.5473 32.7977 77.2637 32.6428 76.974 32.5 78.4928 27.4157 75.6024 22.0627 70.518 20.5439 70.4277 20.517 70.337 20.4913 70.246 20.467 69.8775 14.884 65.0528 10.6567 59.4697 11.0253 54.1426 11.3769 50.0024 15.8022 50.006 21.141L50.006 77.4C49.9927 81.5973 53.3845 85.0108 57.5818 85.0241 60.9211 85.0347 63.876 82.8644 64.865 79.675 70.87 80.9961 76.8089 77.199 78.13 71.194 78.3043 70.4016 78.3915 69.5924 78.39 68.781 78.39 68.747 78.39 68.714 78.39 68.681 82.7129 66.702 85.4853 62.3844 85.486 57.63ZM65.556 58C65.556 58 56.585 51.14 56.585 45.6 56.585 41.906 62.231 37.948 65.556 44.544 68.88 37.944 74.527 41.906 74.527 45.6 74.527 51.14 65.556 58 65.556 58Z" class="MsftOfcThm_Text1_Fill_v2"></path><path d="M27.026 53.738C25.5851 54.1706 24.7677 55.6893 25.2003 57.1302 25.6329 58.5711 27.1516 59.3885 28.5925 58.9559 30.0334 58.5234 30.8508 57.0046 30.4182 55.5637 30.4181 55.5635 30.4181 55.5632 30.418 55.563 29.9857 54.1226 28.4676 53.3054 27.0272 53.7376 27.0268 53.7378 27.0264 53.7379 27.026 53.738Z" class="MsftOfcThm_Text1_Fill_v2"></path><path d="M31.066 38.048C29.6251 38.4804 28.8075 39.9991 29.2399 41.44 29.6724 42.881 31.191 43.6985 32.632 43.2661 34.0729 42.8337 34.8904 41.315 34.458 39.8741 34.458 39.8741 34.458 39.874 34.458 39.874 34.0255 38.4331 32.5069 37.6156 31.066 38.048Z" class="MsftOfcThm_Text1_Fill_v2"></path><path d="M35.869 11C30.5364 11.0042 26.1201 15.1419 25.769 20.463 20.6416 21.8294 17.5927 27.0937 18.9592 32.2211 18.984 32.3145 19.0103 32.4074 19.038 32.5 13.2817 35.336 10.9143 42.3014 13.7503 48.0577 13.8944 48.3503 14.0508 48.6366 14.219 48.916 9.40433 53.5853 9.28646 61.2735 13.9557 66.0882 15.0079 67.1731 16.2533 68.0521 17.628 68.68 17.628 68.714 17.628 68.747 17.628 68.78 17.6181 74.9286 22.5945 79.921 28.7431 79.9309 29.5517 79.9322 30.3581 79.8454 31.148 79.672 32.3929 83.6805 36.6517 85.9208 40.6602 84.6759 43.8457 83.6865 46.0138 80.7356 46.006 77.4L46.006 21.137C46.0066 15.539 41.469 11.0006 35.871 11 35.8703 11 35.8697 11 35.869 11ZM35.038 59.209 34.177 60.809 32.391 60.756C32.0314 61.1229 31.6284 61.4446 31.191 61.714L30.891 63.475 29.159 64 27.935 62.707C27.4237 62.7185 26.9129 62.6675 26.414 62.555L24.943 63.576 23.351 62.719 23.392 60.929C23.0258 60.5693 22.7048 60.1663 22.436 59.729L20.672 59.423 20.151 57.688 21.458 56.475C21.4422 55.9619 21.4889 55.4488 21.597 54.947L20.572 53.49 21.433 51.89 23.226 51.941C23.5807 51.5731 23.9786 51.2494 24.411 50.977L24.711 49.215 26.446 48.694 27.672 50C28.1865 49.9869 28.7007 50.037 29.203 50.149L30.664 49.12 32.264 49.982 32.211 51.768C32.5813 52.1271 32.9064 52.5301 33.179 52.968L34.94 53.268 35.461 55.002 34.161 56.229C34.172 56.7403 34.121 57.251 34.009 57.75ZM39.059 43.521 38.198 45.121 36.412 45.067C36.0573 45.4352 35.6594 45.7592 35.227 46.032L34.92 47.8 33.186 48.321 31.959 47.021C31.4477 47.0325 30.9369 46.9815 30.438 46.869L28.977 47.898 27.377 47.037 27.444 45.231C27.075 44.877 26.7509 44.479 26.479 44.046L24.717 43.746 24.197 42.012 25.497 40.785C25.4842 40.2742 25.5339 39.7637 25.645 39.265L24.6 37.8 25.475 36.191 27.261 36.245C27.6189 35.8786 28.0202 35.5572 28.456 35.288L28.762 33.525 30.5 33 31.724 34.292C32.235 34.2813 32.7454 34.3327 33.244 34.445L34.706 33.419 36.306 34.281 36.251 36.075C36.62 36.429 36.944 36.827 37.216 37.26L38.978 37.56 39.499 39.294 38.199 40.522C38.2068 41.0402 38.1511 41.5574 38.033 42.062Z" class="MsftOfcThm_Text1_Fill_v2"></path></svg>